<svg width="1440" height="240" viewBox="0 0 1440 240" fill="none" xmlns="http://www.w3.org/2000/svg">
<mask id="mask0_16_4125" style="mask-type:alpha" maskUnits="userSpaceOnUse" x="-404" y="33" width="1886" height="232">
<path opacity="0.05" d="M-322.92 35.88L-259.68 206.04H-243.12V207H-304.2V206.04H-285.48L-307.92 145.08H-360.96C-367.44 163.8 -369.96 176.76 -369.96 185.88C-369.96 203.4 -360.24 206.04 -349.68 206.04H-348.24V207H-403.44V206.04H-403.2C-388.2 206.04 -380.64 198.6 -367.68 161.28L-323.76 35.88H-322.92ZM-360.72 144.12H-308.28L-335.16 71.28L-360.6 143.88C-360.6 144 -360.6 144 -360.72 144.12ZM-118.761 133.08V206.04H-100.281V207H-156.561V206.04H-138.801V122.64C-138.801 104.16 -145.761 96.48 -156.561 96.48C-178.641 96.48 -187.881 129 -187.881 144.12V206.04H-170.241V207H-226.401V206.04H-207.921V97.32H-226.401V96.36C-210.561 96.36 -199.521 95.64 -187.881 93.36V134.28C-184.761 117.96 -175.761 93.36 -149.961 93.36C-129.801 93.36 -118.761 107.88 -118.761 133.08ZM-15.8475 134.88L29.7525 206.04H43.3125V207H-8.0475V206.04H6.8325L-30.0075 149.52L-44.8875 164.88V206.04H-27.0075V207H-83.4075V206.04H-64.9275V39.96H-83.4075V39C-67.5675 39 -56.5275 38.28 -44.8875 36V163.56L-8.88749 126.48C-0.967496 118.32 2.15251 111.24 2.15251 106.08C2.15251 100.56 -1.4475 97.32 -6.6075 97.32H-7.5675V96.36H38.9925V97.32H38.5125C27.9525 97.32 10.3125 107.88 -8.6475 127.44L-15.8475 134.88ZM169.523 133.2V206.04H188.123V207H131.243V206.04H149.603V121.68C149.603 104.4 142.883 96.48 132.083 96.48C109.403 96.48 98.3625 130.44 98.3625 147.24V206.04H116.843V207H59.8425V206.04H78.3225V39.96H59.8425V39C75.6825 39 86.7225 38.28 98.3625 36V138C101.603 119.88 112.043 93.36 138.683 93.36C158.603 93.36 169.523 107.76 169.523 133.2ZM343.993 93.36C371.713 93.36 398.113 117.72 398.113 151.8C398.113 185.64 371.713 210.12 343.993 210.12C316.273 210.12 289.993 185.52 289.993 151.8C289.993 117.84 316.273 93.36 343.993 93.36ZM376.153 150.6C376.153 122.88 369.193 94.32 344.233 94.32C319.033 94.32 311.953 122.88 311.953 150.12C311.953 182.4 319.993 209.16 343.993 209.16C368.113 209.16 376.153 182.28 376.153 150.6ZM483.092 37.2C489.212 37.2 492.332 41.04 493.892 44.52C492.092 37.68 485.852 33.96 478.652 33.96C464.492 33.96 454.892 45.84 454.892 67.2C454.892 76.44 456.452 86.76 459.332 96.36H484.772V97.32H459.452V206.04H480.812V207H420.932V206.04H439.532V107.04C439.532 103.68 439.652 100.44 439.772 97.32H420.932V96.36H439.892C442.412 56.04 459.332 33 478.652 33C488.132 33 495.212 39 495.212 47.64C495.212 54.96 490.172 60.48 483.212 60.48C476.252 60.48 471.332 55.44 471.332 48.84C471.332 42.6 476.132 37.2 483.092 37.2ZM714.488 159.96L715.088 148.08H716.048L713.168 207H588.248V206.04H609.608V39.96H588.248V39H712.448L714.368 95.04H713.408L712.808 84.36C711.488 61.44 702.968 39.96 664.088 39.96H633.128V122.4H643.328C649.328 122.4 654.728 122.04 658.088 121.2C669.608 118.44 675.968 104.64 676.448 90H677.408V155.76H676.448C675.728 137.16 669.728 127.08 658.688 124.44C654.728 123.48 649.448 123.36 643.328 123.36H633.128V206.04H663.848C701.287 206.04 713.168 185.52 714.488 159.96ZM807.926 196.56L808.646 197.16C804.326 203.76 796.886 210.12 785.126 210.12C767.726 210.12 759.806 198.6 759.806 174.84V97.32H742.046V96.36H759.806V75.96C766.766 74.04 775.886 66.48 779.726 60.12V96.36H808.046V97.32H779.726V189.6C779.726 202.44 784.646 207 791.726 207C799.286 207 805.046 201.12 807.926 196.56ZM924.444 185.4L925.164 185.88C917.724 199.56 901.884 210.12 884.124 210.12C856.764 210.12 829.524 186.72 829.524 151.92C829.524 118.08 855.324 93.36 883.764 93.36C914.004 93.36 927.804 120.12 926.364 145.08H851.484C850.764 182.4 861.444 207.72 888.564 207.72C903.804 207.72 917.484 197.76 924.444 185.4ZM851.484 144.12H904.164C904.284 142.44 904.284 140.64 904.284 138.96C904.284 117.72 898.044 94.32 880.284 94.32C861.804 94.32 852.924 118.08 851.484 144.12ZM1038.6 108.36C1038.6 116.28 1032.96 121.2 1026.72 121.2C1020.48 121.2 1014.84 116.28 1014.84 109.56C1014.84 102.72 1020.36 97.92 1026.36 97.92C1030.92 97.92 1035.12 100.44 1037.16 104.4C1035.48 99.12 1030.8 94.32 1022.28 94.32C998.522 94.32 989.042 131.76 989.042 161.28V206.04H1008.72V207H950.162V206.04H968.642V97.32H950.162V96.36C966.242 96.36 977.282 95.64 989.042 93.36V144.48C992.282 117.36 1002.96 93.36 1022.28 93.36C1032.48 93.36 1038.6 99.96 1038.6 108.36ZM1165.43 133.08V206.04H1183.91V207H1127.63V206.04H1145.39V122.64C1145.39 104.16 1138.43 96.48 1127.63 96.48C1105.55 96.48 1096.31 129 1096.31 144.12V206.04H1113.95V207H1057.79V206.04H1076.27V97.32H1057.79V96.36C1073.63 96.36 1084.67 95.64 1096.31 93.36V134.28C1099.43 117.96 1108.43 93.36 1134.23 93.36C1154.39 93.36 1165.43 107.88 1165.43 133.08ZM1241.82 58.44C1241.82 65.16 1236.54 70.08 1230.18 70.08C1223.7 70.08 1218.54 65.16 1218.54 58.44C1218.54 51.72 1223.7 46.8 1230.18 46.8C1236.54 46.8 1241.82 51.72 1241.82 58.44ZM1240.26 93.36V206.04H1258.74V207H1201.74V206.04H1220.22V97.32H1201.74V96.36C1217.58 96.36 1228.5 95.64 1240.26 93.36ZM1341.36 196.56L1342.08 197.16C1337.76 203.76 1330.32 210.12 1318.56 210.12C1301.16 210.12 1293.24 198.6 1293.24 174.84V97.32H1275.48V96.36H1293.24V75.96C1300.2 74.04 1309.32 66.48 1313.16 60.12V96.36H1341.48V97.32H1313.16V189.6C1313.16 202.44 1318.08 207 1325.16 207C1332.72 207 1338.48 201.12 1341.36 196.56ZM1384.12 264.36C1373.32 264.36 1366 256.68 1366 247.08C1366 239.16 1370.56 233.04 1378.24 233.04C1385.08 233.04 1390 237.96 1390 244.68C1390 251.52 1385.2 256.44 1378.84 256.44C1371.88 256.44 1367.8 251.4 1366.96 246.48C1366.96 256.56 1374.16 263.4 1384.12 263.4C1397.44 263.4 1405.6 252.6 1412.8 233.76L1419.52 216.24C1420.12 214.68 1420.84 212.76 1420.84 211.2C1420.84 208.8 1419.4 207 1414.84 207H1413.16L1374.76 97.32H1360.48V96.36H1414.12V97.32H1395.76L1428.76 192.12L1450.84 134.16C1453.36 127.56 1454.68 120.96 1454.68 115.32C1454.68 104.88 1450.36 97.32 1441 97.32H1439.2V96.36H1481.32V97.32H1480.48C1467.16 97.32 1459.96 112.68 1450.48 137.64L1414 233.28C1406.44 253.08 1398.16 264.36 1384.12 264.36Z" fill="#6E3F08"/>
</mask>
<g mask="url(#mask0_16_4125)">
<rect x="-405" y="-14" width="1888" height="248" fill="url(#paint0_linear_16_4125)"/>
</g>
<defs>
<linearGradient id="paint0_linear_16_4125" x1="539" y1="157.14" x2="539" y2="234" gradientUnits="userSpaceOnUse">
<stop/>
<stop offset="1" stop-opacity="0"/>
</linearGradient>
</defs>
</svg>
