<svg width="380" height="152" viewBox="0 0 380 152" fill="none" xmlns="http://www.w3.org/2000/svg">
<mask id="mask0_21_1430" style="mask-type:alpha" maskUnits="userSpaceOnUse" x="-405" y="20" width="1195" height="148">
<path opacity="0.05" d="M-353.016 22.624L-312.964 130.392H-302.476V131H-341.16V130.392H-329.304L-343.516 91.784H-377.108C-381.212 103.64 -382.808 111.848 -382.808 117.624C-382.808 128.72 -376.652 130.392 -369.964 130.392H-369.052V131H-404.012V130.392H-403.86C-394.36 130.392 -389.572 125.68 -381.364 102.044L-353.548 22.624H-353.016ZM-376.956 91.176H-343.744L-360.768 45.044L-376.88 91.024C-376.88 91.1 -376.88 91.1 -376.956 91.176ZM-223.715 84.184V130.392H-212.011V131H-247.655V130.392H-236.407V77.572C-236.407 65.868 -240.815 61.004 -247.655 61.004C-261.639 61.004 -267.491 81.6 -267.491 91.176V130.392H-256.319V131H-291.887V130.392H-280.183V61.536H-291.887V60.928C-281.855 60.928 -274.863 60.472 -267.491 59.028V84.944C-265.515 74.608 -259.815 59.028 -243.475 59.028C-230.707 59.028 -223.715 68.224 -223.715 84.184ZM-158.537 85.324L-129.657 130.392H-121.069V131H-153.597V130.392H-144.173L-167.505 94.596L-176.929 104.324V130.392H-165.605V131H-201.325V130.392H-189.621V25.208H-201.325V24.6C-191.293 24.6 -184.301 24.144 -176.929 22.7V103.488L-154.129 80.004C-149.113 74.836 -147.137 70.352 -147.137 67.084C-147.137 63.588 -149.417 61.536 -152.685 61.536H-153.293V60.928H-123.805V61.536H-124.109C-130.797 61.536 -141.969 68.224 -153.977 80.612L-158.537 85.324ZM-41.1358 84.26V130.392H-29.3558V131H-65.3798V130.392H-53.7518V76.964C-53.7518 66.02 -58.0078 61.004 -64.8478 61.004C-79.2118 61.004 -86.2038 82.512 -86.2038 93.152V130.392H-74.4998V131H-110.6V130.392H-98.8958V25.208H-110.6V24.6C-100.568 24.6 -93.5758 24.144 -86.2038 22.7V87.3C-84.1518 75.824 -77.5398 59.028 -60.6678 59.028C-48.0518 59.028 -41.1358 68.148 -41.1358 84.26ZM69.3623 59.028C86.9183 59.028 103.638 74.456 103.638 96.04C103.638 117.472 86.9183 132.976 69.3623 132.976C51.8063 132.976 35.1623 117.396 35.1623 96.04C35.1623 74.532 51.8063 59.028 69.3623 59.028ZM89.7303 95.28C89.7303 77.724 85.3223 59.636 69.5143 59.636C53.5543 59.636 49.0703 77.724 49.0703 94.976C49.0703 115.42 54.1623 132.368 69.3623 132.368C84.6383 132.368 89.7303 115.344 89.7303 95.28ZM157.458 23.46C161.334 23.46 163.31 25.892 164.298 28.096C163.158 23.764 159.206 21.408 154.646 21.408C145.678 21.408 139.598 28.932 139.598 42.46C139.598 48.312 140.586 54.848 142.41 60.928H158.522V61.536H142.486V130.392H156.014V131H118.09V130.392H129.87V67.692C129.87 65.564 129.946 63.512 130.022 61.536H118.09V60.928H130.098C131.694 35.392 142.41 20.8 154.646 20.8C160.65 20.8 165.134 24.6 165.134 30.072C165.134 34.708 161.942 38.204 157.534 38.204C153.126 38.204 150.01 35.012 150.01 30.832C150.01 26.88 153.05 23.46 157.458 23.46ZM304.009 101.208L304.389 93.684H304.997L303.173 131H224.057V130.392H237.585V25.208H224.057V24.6H302.717L303.933 60.092H303.325L302.945 53.328C302.109 38.812 296.713 25.208 272.089 25.208H252.481V77.42H258.941C262.741 77.42 266.161 77.192 268.289 76.66C275.585 74.912 279.613 66.172 279.917 56.9H280.525V98.548H279.917C279.461 86.768 275.661 80.384 268.669 78.712C266.161 78.104 262.817 78.028 258.941 78.028H252.481V130.392H271.937C295.649 130.392 303.173 117.396 304.009 101.208ZM363.187 124.388L363.643 124.768C360.907 128.948 356.195 132.976 348.747 132.976C337.727 132.976 332.711 125.68 332.711 110.632V61.536H321.463V60.928H332.711V48.008C337.119 46.792 342.895 42.004 345.327 37.976V60.928H363.263V61.536H345.327V119.98C345.327 128.112 348.443 131 352.927 131C357.715 131 361.363 127.276 363.187 124.388ZM436.981 117.32L437.437 117.624C432.725 126.288 422.693 132.976 411.445 132.976C394.117 132.976 376.865 118.156 376.865 96.116C376.865 74.684 393.205 59.028 411.217 59.028C430.369 59.028 439.109 75.976 438.197 91.784H390.773C390.317 115.42 397.081 131.456 414.257 131.456C423.909 131.456 432.573 125.148 436.981 117.32ZM390.773 91.176H424.137C424.213 90.112 424.213 88.972 424.213 87.908C424.213 74.456 420.261 59.636 409.013 59.636C397.309 59.636 391.685 74.684 390.773 91.176ZM509.281 68.528C509.281 73.544 505.709 76.66 501.757 76.66C497.805 76.66 494.233 73.544 494.233 69.288C494.233 64.956 497.729 61.916 501.529 61.916C504.417 61.916 507.077 63.512 508.369 66.02C507.305 62.676 504.341 59.636 498.945 59.636C483.897 59.636 477.893 83.348 477.893 102.044V130.392H490.357V131H453.269V130.392H464.973V61.536H453.269V60.928C463.453 60.928 470.445 60.472 477.893 59.028V91.404C479.945 74.228 486.709 59.028 498.945 59.028C505.405 59.028 509.281 63.208 509.281 68.528ZM589.604 84.184V130.392H601.308V131H565.664V130.392H576.912V77.572C576.912 65.868 572.504 61.004 565.664 61.004C551.68 61.004 545.828 81.6 545.828 91.176V130.392H557V131H521.432V130.392H533.136V61.536H521.432V60.928C531.464 60.928 538.456 60.472 545.828 59.028V84.944C547.804 74.608 553.504 59.028 569.844 59.028C582.612 59.028 589.604 68.224 589.604 84.184ZM637.986 36.912C637.986 41.168 634.642 44.284 630.614 44.284C626.51 44.284 623.242 41.168 623.242 36.912C623.242 32.656 626.51 29.54 630.614 29.54C634.642 29.54 637.986 32.656 637.986 36.912ZM636.998 59.028V130.392H648.702V131H612.602V130.392H624.306V61.536H612.602V60.928C622.634 60.928 629.55 60.472 636.998 59.028ZM701.03 124.388L701.486 124.768C698.75 128.948 694.038 132.976 686.59 132.976C675.57 132.976 670.554 125.68 670.554 110.632V61.536H659.306V60.928H670.554V48.008C674.962 46.792 680.738 42.004 683.17 37.976V60.928H701.106V61.536H683.17V119.98C683.17 128.112 686.286 131 690.77 131C695.558 131 699.206 127.276 701.03 124.388ZM728.108 167.328C721.268 167.328 716.632 162.464 716.632 156.384C716.632 151.368 719.52 147.492 724.384 147.492C728.716 147.492 731.832 150.608 731.832 154.864C731.832 159.196 728.792 162.312 724.764 162.312C720.356 162.312 717.772 159.12 717.24 156.004C717.24 162.388 721.8 166.72 728.108 166.72C736.544 166.72 741.712 159.88 746.272 147.948L750.528 136.852C750.908 135.864 751.364 134.648 751.364 133.66C751.364 132.14 750.452 131 747.564 131H746.5L722.18 61.536H713.136V60.928H747.108V61.536H735.48L756.38 121.576L770.364 84.868C771.96 80.688 772.796 76.508 772.796 72.936C772.796 66.324 770.06 61.536 764.132 61.536H762.992V60.928H789.668V61.536H789.136C780.7 61.536 776.14 71.264 770.136 87.072L747.032 147.644C742.244 160.184 737 167.328 728.108 167.328Z" fill="#6E3F08"/>
</mask>
<g mask="url(#mask0_21_1430)">
<rect y="-8" width="382" height="154" fill="url(#paint0_linear_21_1430)"/>
</g>
<defs>
<linearGradient id="paint0_linear_21_1430" x1="191" y1="98.2727" x2="191" y2="146" gradientUnits="userSpaceOnUse">
<stop/>
<stop offset="1" stop-opacity="0"/>
</linearGradient>
</defs>
</svg>
