<svg width="39" height="28" viewBox="0 0 39 28" fill="none" xmlns="http://www.w3.org/2000/svg">
<path d="M38.1562 4.47996C37.7146 2.81707 36.4134 1.50743 34.7613 1.06298C31.7667 0.255371 19.7586 0.255371 19.7586 0.255371C19.7586 0.255371 7.75065 0.255371 4.75597 1.06298C3.10384 1.5075 1.80263 2.81707 1.361 4.47996C0.558594 7.49404 0.558594 13.7827 0.558594 13.7827C0.558594 13.7827 0.558594 20.0713 1.361 23.0854C1.80263 24.7482 3.10384 26.0033 4.75597 26.4478C7.75065 27.2554 19.7586 27.2554 19.7586 27.2554C19.7586 27.2554 31.7666 27.2554 34.7613 26.4478C36.4134 26.0033 37.7146 24.7482 38.1562 23.0853C38.9586 20.0713 38.9586 13.7827 38.9586 13.7827C38.9586 13.7827 38.9586 7.49404 38.1562 4.47996ZM15.8313 19.4922V8.07307L25.8676 13.7828L15.8313 19.4922Z" fill="white"/>
</svg>
