<svg width="32" height="32" viewBox="0 0 32 32" fill="none" xmlns="http://www.w3.org/2000/svg">
<path d="M15.8033 7.67637C11.3314 7.67637 7.72441 11.2834 7.72441 15.7553C7.72441 20.2271 11.3314 23.8342 15.8033 23.8342C20.2752 23.8342 23.8822 20.2271 23.8822 15.7553C23.8822 11.2834 20.2752 7.67637 15.8033 7.67637ZM15.8033 21.0076C12.9135 21.0076 10.551 18.6521 10.551 15.7553C10.551 12.8584 12.9064 10.5029 15.8033 10.5029C18.7002 10.5029 21.0557 12.8584 21.0557 15.7553C21.0557 18.6521 18.6932 21.0076 15.8033 21.0076ZM26.0971 7.3459C26.0971 8.39355 25.2533 9.23027 24.2127 9.23027C23.165 9.23027 22.3283 8.38652 22.3283 7.3459C22.3283 6.30527 23.1721 5.46152 24.2127 5.46152C25.2533 5.46152 26.0971 6.30527 26.0971 7.3459ZM31.4479 9.2584C31.3283 6.73418 30.7518 4.49824 28.9025 2.65605C27.0604 0.813867 24.8244 0.237305 22.3002 0.110742C19.6986 -0.0369141 11.901 -0.0369141 9.29941 0.110742C6.78223 0.230273 4.54629 0.806836 2.69707 2.64902C0.847852 4.49121 0.27832 6.72715 0.151758 9.25137C0.00410156 11.8529 0.00410156 19.6506 0.151758 22.2521C0.271289 24.7764 0.847851 27.0123 2.69707 28.8545C4.54629 30.6967 6.7752 31.2732 9.29941 31.3998C11.901 31.5475 19.6986 31.5475 22.3002 31.3998C24.8244 31.2803 27.0604 30.7037 28.9025 28.8545C30.7447 27.0123 31.3213 24.7764 31.4479 22.2521C31.5955 19.6506 31.5955 11.86 31.4479 9.2584ZM28.0869 25.0436C27.5385 26.4217 26.4768 27.4834 25.0916 28.0389C23.0174 28.8615 18.0955 28.6717 15.8033 28.6717C13.5111 28.6717 8.58223 28.8545 6.51504 28.0389C5.13691 27.4904 4.07519 26.4287 3.51973 25.0436C2.69707 22.9693 2.88691 18.0475 2.88691 15.7553C2.88691 13.4631 2.7041 8.53418 3.51973 6.46699C4.06816 5.08887 5.12988 4.02715 6.51504 3.47168C8.58926 2.64902 13.5111 2.83887 15.8033 2.83887C18.0955 2.83887 23.0244 2.65605 25.0916 3.47168C26.4697 4.02012 27.5314 5.08184 28.0869 6.46699C28.9096 8.54121 28.7197 13.4631 28.7197 15.7553C28.7197 18.0475 28.9096 22.9764 28.0869 25.0436Z" fill="white"/>
</svg>
