<svg width="200" height="202" viewBox="0 0 200 202" fill="none" xmlns="http://www.w3.org/2000/svg">
<path fill-rule="evenodd" clip-rule="evenodd" d="M92.6452 87.4657C92.6452 91.1496 92.6452 94.3246 92.4492 96.0066C92.2871 97.1715 92.0905 98.0513 91.2956 98.2154C90.9368 98.293 90.4583 98.3705 89.8691 98.3705C89.3906 98.3705 89.2376 98.4915 89.2376 98.6898C89.2376 98.9745 89.5104 99.0866 90.0319 99.0866C90.8268 99.0866 91.86 99.0087 92.7734 99.0087C93.722 98.9656 94.6016 98.9656 95.0378 98.9656C95.6354 98.9656 96.8223 99.0087 98.0104 99.0866C99.1634 99.1297 100.316 99.2073 100.786 99.2073C108.089 99.2073 111.378 94.7557 111.378 90.4681C111.378 85.7834 107.406 82.9365 104.152 81.815C106.33 80.0548 108.201 78.088 108.201 74.8009C108.201 72.6787 106.928 68.7879 99.7441 68.7879C98.3945 68.7879 96.849 68.9089 94.901 68.9089C94.1061 68.9089 91.612 68.7879 89.502 68.7879C88.9043 68.7879 88.6309 68.8655 88.6309 69.1502C88.6309 69.435 88.8704 69.5126 89.306 69.5126C89.8607 69.5126 90.5358 69.5556 90.8522 69.6332C92.1589 69.9179 92.4753 70.5564 92.5605 71.9199C92.6374 73.205 92.6374 74.3265 92.6374 80.4174V87.4657H92.6452ZM97.4036 71.1946C97.4036 70.7547 97.4798 70.5906 97.7617 70.513C98.1634 70.4354 98.5137 70.4354 99.069 70.4354C102.477 70.4354 104.032 73.9639 104.032 76.647C104.032 78.6141 103.434 80.0548 102.4 80.8915C101.726 81.4955 100.854 81.651 99.5391 81.651C98.625 81.651 98.0352 81.6076 97.6764 81.53C97.5143 81.4869 97.3945 81.4093 97.3945 81.0901V71.1946H97.4036ZM106.492 92.2796C106.492 96.4465 103.476 97.4128 101.691 97.4128C100.777 97.4128 99.8633 97.3698 98.7956 96.9298C97.5313 96.412 97.4115 95.7305 97.4115 93.0819V83.5832C97.4115 83.3846 97.4883 83.307 97.651 83.307C98.2487 83.307 98.6419 83.307 99.3594 83.3501C100.906 83.4277 101.82 83.7124 102.656 84.3164C105.655 86.4218 106.492 89.7951 106.492 92.2796Z" fill="#CCAF6B"/>
<path fill-rule="evenodd" clip-rule="evenodd" d="M98.1123 28.6881C97.5316 28.5586 96.9248 28.7315 96.8649 29.4821L96.8395 30.0946C95.208 28.9386 96.4554 27.4203 98.223 28.2054L98.2914 27.9809C98.3597 27.7567 98.3343 27.8172 98.3767 27.6791C98.4196 27.5581 98.4711 27.4029 98.6416 27.2477C99.0095 26.9025 99.2399 26.9114 99.641 26.9545L99.3161 27.541C99.0342 28.2485 99.4528 28.8956 99.7354 29.8102C100.017 28.8956 100.435 28.2485 100.154 27.541L99.8291 26.9545C100.23 26.9114 100.461 26.9114 100.828 27.2477C100.991 27.4032 101.042 27.5584 101.085 27.6791C101.136 27.8172 101.11 27.7655 101.17 27.9809L101.239 28.2054C103.006 27.4203 104.245 28.9301 102.622 30.0946L102.597 29.4821C102.537 28.7226 101.931 28.5589 101.35 28.6881C100.052 28.9814 100.034 30.3533 99.9489 31.4058V31.4492L99.9235 31.4748C99.8636 31.5958 99.7953 31.6389 99.7185 31.6214C99.6501 31.6389 99.5817 31.5958 99.5218 31.4833L99.4965 31.4492V31.3801C99.419 30.3362 99.3929 28.9817 98.1123 28.6881Z" fill="#CCAF6B"/>
<path fill-rule="evenodd" clip-rule="evenodd" d="M98.1123 139.419C97.5316 139.548 96.9248 139.375 96.8649 138.625L96.8395 138.012C95.208 139.177 96.4554 140.687 98.223 139.902L98.2914 140.126C98.3597 140.342 98.3343 140.29 98.3767 140.428C98.4196 140.549 98.4711 140.704 98.6416 140.859C99.0095 141.204 99.2399 141.196 99.641 141.153L99.3161 140.566C99.0342 139.858 99.4528 139.211 99.7354 138.297C100.017 139.211 100.435 139.858 100.154 140.566L99.8291 141.153C100.23 141.196 100.461 141.196 100.828 140.859C100.991 140.704 101.042 140.549 101.085 140.428C101.136 140.29 101.11 140.341 101.17 140.126L101.239 139.902C103.006 140.687 104.245 139.168 102.622 138.012L102.597 138.625C102.537 139.384 101.931 139.548 101.35 139.419C100.052 139.125 100.034 137.753 99.9489 136.701V136.658L99.9235 136.632C99.8636 136.511 99.7953 136.468 99.7185 136.485C99.6501 136.476 99.5817 136.511 99.5218 136.623L99.4965 136.658V136.727C99.419 137.771 99.3929 139.134 98.1123 139.419Z" fill="#CCAF6B"/>
<path fill-rule="evenodd" clip-rule="evenodd" d="M146.587 113.149C146.408 113.727 145.964 114.167 145.28 113.839L144.742 113.554C144.921 115.556 146.843 115.228 147.048 113.287L147.279 113.339C147.501 113.391 147.441 113.391 147.587 113.408C147.715 113.433 147.868 113.468 148.082 113.399C148.561 113.244 148.671 113.045 148.833 112.666L148.176 112.657C147.424 112.545 147.083 111.863 146.441 111.156C147.373 111.363 148.124 111.32 148.594 111.924L148.936 112.502C149.175 112.174 149.294 111.975 149.184 111.475C149.132 111.251 149.03 111.13 148.944 111.026C148.85 110.914 148.884 110.966 148.73 110.802L148.577 110.63C150.139 109.474 149.456 107.627 147.645 108.473L148.158 108.809C148.781 109.241 148.619 109.853 148.218 110.293C147.321 111.285 146.133 110.612 145.186 110.164L145.151 110.146L145.117 110.155C144.98 110.146 144.912 110.189 144.887 110.258C144.835 110.319 144.835 110.396 144.912 110.509L144.929 110.552L144.98 110.586C145.835 111.173 146.988 111.872 146.587 113.149Z" fill="#CCAF6B"/>
<path fill-rule="evenodd" clip-rule="evenodd" d="M53.9001 54.6475C54.0791 54.0695 54.5238 53.6292 55.2074 53.9574L55.7451 54.2421C55.5661 52.2405 53.6442 52.5683 53.4385 54.5008L53.208 54.4578C52.986 54.4058 53.0459 54.4058 52.9007 54.3887C52.7725 54.3627 52.6188 54.3282 52.4053 54.3973C51.9268 54.5528 51.8161 54.751 51.6455 55.1304L52.3115 55.1393C53.0635 55.2514 53.4046 55.933 54.0453 56.6405C53.1234 56.4337 52.3623 56.4764 51.8929 55.8728L51.5511 55.2948C51.3122 55.6226 51.1924 55.8212 51.3037 56.3213C51.3545 56.5458 51.4574 56.6579 51.5433 56.7615C51.6371 56.8736 51.6032 56.8217 51.7568 56.9943L51.9105 57.1669C50.3473 58.3228 51.0303 60.1689 52.8415 59.3148L52.3291 58.9873C51.7054 58.5559 51.8675 57.9431 52.2692 57.4947C53.1657 56.5024 54.3538 57.184 55.3018 57.6242L55.3356 57.6416L55.3701 57.6327C55.5068 57.6416 55.5752 57.6071 55.6006 57.5295C55.652 57.469 55.652 57.3914 55.5752 57.2793L55.5583 57.2359L55.4977 57.2017C54.6605 56.6231 53.5075 55.9155 53.9001 54.6475Z" fill="#CCAF6B"/>
<path fill-rule="evenodd" clip-rule="evenodd" d="M51.7556 110.733C51.3539 110.285 51.2002 109.681 51.8155 109.241L52.3278 108.913C50.5173 108.067 49.8422 109.914 51.3968 111.061L51.2432 111.233C51.0896 111.406 51.1241 111.354 51.0297 111.466C50.9437 111.57 50.8415 111.691 50.7901 111.915C50.6787 112.416 50.7985 112.614 51.0375 112.942L51.3793 112.364C51.8487 111.768 52.6091 111.803 53.5316 111.596C52.891 112.303 52.5498 112.993 51.7979 113.097L51.1319 113.106C51.294 113.477 51.4047 113.684 51.8832 113.831C52.0974 113.9 52.251 113.865 52.3877 113.848C52.5238 113.822 52.473 113.822 52.6866 113.779L52.9164 113.727C53.1306 115.668 55.044 115.996 55.223 113.995L54.6853 114.279C54.0017 114.607 53.5577 114.158 53.378 113.589C52.9847 112.312 54.1553 111.605 55.0095 111.001L55.044 110.975L55.0524 110.941C55.1202 110.829 55.1286 110.751 55.0778 110.691C55.0524 110.622 54.9841 110.578 54.8558 110.587L54.8129 110.578L54.753 110.604C53.8226 111.061 52.6521 111.717 51.7556 110.733Z" fill="#CCAF6B"/>
<path fill-rule="evenodd" clip-rule="evenodd" d="M148.321 57.4775C148.722 57.9174 148.876 58.5302 148.261 58.9701L147.748 59.2979C149.559 60.1432 150.234 58.2971 148.679 57.1497L148.833 56.9771C148.987 56.8048 148.953 56.8564 149.047 56.7443C149.132 56.6408 149.235 56.5198 149.286 56.3044C149.397 55.8037 149.278 55.6055 149.039 55.2777L148.697 55.8557C148.228 56.4511 147.467 56.4165 146.545 56.6233C147.185 55.9158 147.527 55.2343 148.278 55.1222L148.945 55.1136C148.783 54.7424 148.672 54.5356 148.193 54.3887C147.979 54.3196 147.817 54.3541 147.689 54.3801C147.543 54.4057 147.603 54.4057 147.381 54.4577L147.151 54.5096C146.937 52.5682 145.024 52.2404 144.845 54.242L145.382 53.9658C146.066 53.6381 146.51 54.0865 146.69 54.6559C147.091 55.9329 145.92 56.6401 145.067 57.2441L145.032 57.2697L145.015 57.3042C144.946 57.4164 144.938 57.4939 144.989 57.5544C145.015 57.6235 145.083 57.6665 145.211 57.6577L145.254 57.6665L145.314 57.632C146.254 57.1497 147.433 56.4941 148.321 57.4775Z" fill="#CCAF6B"/>
<path fill-rule="evenodd" clip-rule="evenodd" d="M103.732 31.872C102.75 32.5016 101.579 33.3557 100.614 34.3477C101.434 35.383 102.023 36.5389 102.152 37.7814C102.305 39.2566 101.417 41.4568 99.726 41.077C98.0346 41.4568 97.1465 39.2655 97.3002 37.7814C97.4284 36.5389 98.0176 35.383 98.8373 34.3477C97.8724 33.3557 96.7019 32.5016 95.7201 31.872C92.1661 35.5901 91.1758 41.4568 94.8314 45.4945C96.0958 46.8918 97.8295 48.0395 99.726 48.7727C101.614 48.0477 103.356 46.8921 104.62 45.4945C108.285 41.4568 107.294 35.5901 103.732 31.872ZM142.58 54.3455C142.529 55.5189 142.384 56.9681 142.017 58.3141C140.719 58.1155 139.429 58.176 138.301 58.685C136.951 59.2889 135.517 61.161 136.686 62.4554C137.199 64.1203 139.531 63.8011 140.718 62.9298C141.717 62.1963 142.41 61.1005 142.897 59.8669C144.229 60.2204 145.544 60.8072 146.578 61.3596C145.169 66.3287 140.634 70.1333 135.346 68.9428C133.518 68.5374 131.664 67.5968 130.092 66.3027C129.768 64.284 129.896 62.1877 130.46 60.3844C132.091 55.1651 137.609 53.0948 142.58 54.3455ZM141.581 59.5996C141.197 60.5228 140.667 61.3165 139.95 61.8429C139.625 62.0845 138.472 62.5504 138.062 62.2052L137.883 61.7478L137.575 61.3596C137.49 60.8243 138.464 60.0566 138.83 59.8926C139.65 59.5395 140.599 59.479 141.581 59.5996ZM143.306 58.5903C143.733 56.977 143.887 55.2601 143.913 53.8539L143.921 53.345L143.442 53.2069C137.676 51.4815 131.108 53.8799 129.194 59.9794C128.725 61.4976 128.528 63.1889 128.613 64.8794C127.52 63.6544 126.691 62.2397 126.29 60.7214C125.505 57.7706 127.512 54.7081 128.613 52.0684C129.459 50.0408 130.1 47.6078 130.151 45.4166C130.219 42.6903 129.049 40.2314 126.623 38.9203C126.213 38.696 125.777 38.5238 125.333 38.3853C125.205 38.2907 125.068 38.1956 124.932 38.1181C122.591 36.6511 119.9 36.8585 117.594 38.2821C115.741 39.4292 113.972 41.2066 112.657 42.958C110.94 45.2354 109.317 48.5222 106.396 49.3162C104.893 49.7215 103.261 49.7045 101.663 49.3681C103.158 48.6004 104.509 47.5822 105.576 46.4091C109.856 41.6899 108.625 34.7451 104.26 30.5608L103.902 30.207L103.475 30.4658C102.279 31.1993 100.878 32.1827 99.7162 33.3646C98.5547 32.1827 97.1543 31.1993 95.9584 30.4658L95.5313 30.207L95.1635 30.5608C90.7989 34.7448 89.5775 41.6813 93.8568 46.4091C94.9245 47.5822 96.2741 48.6004 97.7689 49.3681C96.1713 49.7045 94.5398 49.7215 93.0456 49.3162C90.1244 48.5222 88.5013 45.2354 86.7845 42.958C85.4688 41.2066 83.7006 39.4292 81.847 38.2821C79.5404 36.8585 76.8503 36.6603 74.5098 38.1181C74.3223 38.2302 74.142 38.3597 73.9714 38.4889C73.8692 38.5409 73.767 38.5925 73.6732 38.6441C71.2468 39.9556 70.0769 42.4145 70.1452 45.1404C70.196 47.3317 70.8451 49.7646 71.6823 51.7922C72.7845 54.4319 74.7917 57.4948 74.0053 60.4452C73.6042 61.9635 72.7754 63.3782 71.6823 64.6033C71.7676 62.9124 71.5717 61.2215 71.1016 59.7032C69.1967 53.6037 62.6283 51.2053 56.8627 52.9307L56.3842 53.0774L56.392 53.5863C56.418 54.9925 56.5632 56.7094 56.9987 58.3227C55.4011 58.754 53.8555 59.479 52.6335 60.1605L52.1895 60.4107L52.3093 60.9022C53.7181 66.812 59.0567 71.3586 65.2409 69.9695C66.7872 69.6243 68.3249 68.9513 69.7344 68.0285C69.2299 69.5898 68.4271 71.0305 67.3256 72.1434C65.1901 74.3002 61.5599 74.076 58.7409 74.4383C56.5801 74.7144 54.1713 75.37 52.2663 76.4228C49.8913 77.7254 48.3711 79.9768 48.4564 82.755C48.4649 82.9536 48.474 83.1433 48.4994 83.3415C48.2943 83.98 48.1745 84.6445 48.1582 85.3175C48.0723 88.0953 49.5931 90.3471 51.9675 91.6497C53.8724 92.7024 56.2813 93.358 58.4421 93.6342C61.252 93.9965 64.8829 93.7723 67.0267 95.929C68.129 97.042 68.9226 98.4741 69.4356 100.036C68.0261 99.1126 66.4799 98.4396 64.9421 98.0944C58.7579 96.7142 53.4193 101.261 52.0105 107.162L51.8907 107.654L52.3353 107.903C53.5567 108.585 55.1023 109.318 56.6999 109.741C56.2728 111.355 56.1276 113.071 56.0938 114.478L56.0853 114.987L56.5638 115.133C62.3295 116.859 68.8978 114.461 70.8028 108.352C71.2813 106.834 71.4694 105.143 71.3835 103.452C72.4773 104.677 73.3054 106.092 73.7071 107.61C74.4922 110.561 72.4851 113.623 71.3835 116.263C70.5378 118.29 69.8972 120.724 69.8373 122.924C69.7689 125.65 70.948 128.109 73.3653 129.42C73.724 129.61 74.0997 129.773 74.4844 129.903L74.5098 129.92C76.8503 131.378 79.5404 131.18 81.847 129.756C83.7006 128.618 85.4688 126.832 86.7845 125.08C88.5013 122.794 90.1244 119.507 93.0456 118.722C94.5489 118.317 96.1804 118.334 97.7689 118.67C96.2741 119.438 94.9245 120.456 93.8568 121.629C89.5775 126.348 90.8073 133.293 95.1635 137.477L95.5313 137.831L95.9584 137.564C97.1543 136.839 98.5547 135.847 99.7162 134.665C100.887 135.847 102.288 136.83 103.475 137.564L103.902 137.831L104.26 137.477C108.625 133.293 109.856 126.348 105.576 121.629C104.509 120.456 103.158 119.438 101.663 118.67C103.261 118.333 104.893 118.316 106.396 118.722C109.317 119.516 110.94 122.803 112.657 125.08C113.972 126.831 115.741 128.609 117.594 129.756C119.9 131.179 122.591 131.378 124.932 129.92C125.179 129.765 125.427 129.584 125.658 129.402C125.956 129.29 126.239 129.161 126.521 129.006C128.947 127.694 130.117 125.235 130.049 122.509C129.989 120.318 129.348 117.885 128.503 115.858C127.4 113.218 125.393 110.155 126.179 107.205C126.581 105.686 127.409 104.272 128.503 103.046C128.417 104.738 128.605 106.429 129.083 107.947C130.988 114.046 137.557 116.444 143.322 114.719L143.801 114.573L143.792 114.064C143.767 112.657 143.622 110.941 143.186 109.327C144.784 108.896 146.329 108.171 147.551 107.489L147.995 107.248L147.876 106.756C146.467 100.846 141.128 96.2996 134.943 97.6887C133.406 98.0339 131.86 98.7069 130.451 99.6297C130.963 98.0684 131.758 96.6277 132.859 95.5148C134.995 93.358 138.625 93.5822 141.444 93.2199C143.605 92.9438 146.014 92.2882 147.919 91.2358C150.293 89.9328 151.814 87.6814 151.728 84.9032C151.719 84.6964 151.703 84.489 151.686 84.2822C151.771 83.8679 151.822 83.454 151.839 83.0397C151.925 80.2619 150.404 78.0101 148.029 76.7072C146.124 75.6547 143.716 74.9992 141.555 74.723C138.736 74.3692 135.106 74.5849 132.97 72.4281C131.877 71.3152 131.074 69.8831 130.57 68.3214C131.979 69.2446 133.525 69.9176 135.063 70.2625C141.247 71.643 146.586 67.0964 147.995 61.1955L148.115 60.7037L147.671 60.462C146.45 59.7463 144.904 59.0216 143.306 58.5903ZM128.88 67.002C129.349 69.4087 130.408 71.6864 132.048 73.3513C134.525 75.8533 138.173 75.6117 141.393 76.0259C143.392 76.2761 145.647 76.8886 147.406 77.8549C148.525 78.4674 149.422 79.3301 149.96 80.3914C149.542 79.9341 149.063 79.5373 148.516 79.2266C147.799 78.8212 147.005 78.5795 146.184 78.545C140.777 78.2948 138.882 85.4207 143.178 88.4662C144.032 89.0701 145.083 89.4068 146.287 89.3548C147.116 89.3118 147.902 89.0787 148.619 88.6733C148.969 88.4747 149.286 88.2419 149.584 87.9832C149.037 88.8285 148.252 89.5271 147.303 90.0453C145.544 91.0112 143.289 91.6241 141.29 91.8742C138.07 92.2882 134.414 92.0465 131.945 94.5485C130.305 96.2049 129.246 98.4826 128.777 100.898C126.949 102.511 125.522 104.573 124.915 106.842C124.01 110.259 126.043 113.338 127.299 116.358C128.076 118.23 128.682 120.499 128.734 122.526C128.759 123.708 128.52 124.821 127.991 125.77C128.11 125.279 128.178 124.77 128.17 124.261C128.162 123.424 127.966 122.622 127.589 121.88C124.292 115.444 114.436 121.19 118.313 127.298C118.757 127.996 119.356 128.575 120.065 128.997C120.483 129.247 120.936 129.437 121.397 129.575C120.337 129.558 119.27 129.213 118.288 128.6C116.579 127.547 114.93 125.874 113.718 124.261C111.753 121.646 110.139 118.333 106.757 117.419C104.51 116.806 102.033 117.031 99.7351 117.825C97.4369 117.031 94.9512 116.815 92.7129 117.419C89.3308 118.333 87.7077 121.646 85.7435 124.261C84.53 125.874 82.8816 127.547 81.1739 128.6C80.9343 128.755 80.6784 128.885 80.4304 129.005C80.8835 128.643 81.2761 128.203 81.5925 127.703C85.4616 121.612 75.2286 115.305 71.8718 121.871C71.4955 122.613 71.2995 123.424 71.2911 124.252V124.433C71.2051 123.95 71.1628 123.449 71.1713 122.94C71.2227 120.913 71.8295 118.636 72.6068 116.772C73.862 113.744 75.8952 110.672 74.9896 107.256C74.3835 104.987 72.9571 102.934 71.129 101.312C70.6589 98.9051 69.6088 96.6274 67.9681 94.9624C65.4916 92.4605 61.8438 92.7021 58.6153 92.2882C56.625 92.038 54.3698 91.4251 52.6023 90.4589C50.9454 89.5445 49.7832 88.1035 49.5352 86.2834C50.0736 87.1461 50.7995 87.8882 51.6967 88.3971C52.4141 88.8025 53.2084 89.0441 54.0287 89.0787C61.084 89.415 61.1263 78.6223 53.7299 78.9675C52.9011 79.0106 52.1153 79.2351 51.3894 79.649C50.9278 79.9167 50.5007 80.2445 50.125 80.6242C50.6205 79.3301 51.6114 78.2948 52.9011 77.5787C54.6609 76.6125 56.9154 76.0085 58.9148 75.7498C62.1348 75.3355 65.7904 75.5772 68.2592 73.0752C69.8991 71.4188 70.9584 69.1414 71.4278 66.7255C73.2559 65.1122 74.6823 63.0505 75.2891 60.7816C76.1947 57.3653 74.1615 54.2853 72.9063 51.2658C72.129 49.3934 71.5222 47.116 71.4707 45.0973C71.5645 45.4507 71.7012 45.796 71.8724 46.1326C75.1693 52.5684 85.7956 46.4778 81.8913 40.3264C81.6693 39.9727 81.4043 39.6446 81.1055 39.3602L81.1661 39.4032C82.8744 40.456 84.5228 42.1295 85.7357 43.7428C87.6999 46.3569 89.323 49.6696 92.7051 50.5843C94.9519 51.1882 97.4291 50.9725 99.7266 50.1785C102.025 50.9725 104.51 51.1882 106.749 50.5843C110.131 49.6696 111.754 46.3569 113.71 43.7428C114.923 42.1295 116.572 40.4557 118.28 39.4032C119.186 38.8423 120.159 38.506 121.133 38.4458C120.8 38.5665 120.466 38.722 120.159 38.9114C119.45 39.3342 118.852 39.9122 118.408 40.6108C114.495 46.7793 124.267 52.6115 127.581 46.1408C127.957 45.3991 128.154 44.588 128.162 43.7599C128.17 43.0612 128.051 42.3793 127.829 41.7237C128.538 42.7505 128.862 44.0275 128.828 45.382C128.777 47.4093 128.17 49.6867 127.393 51.5502C126.137 54.57 124.104 57.6497 125.01 61.0663C125.625 63.3266 127.042 65.3887 128.88 67.002ZM150.354 84.196C150.012 85.5591 149.183 86.8187 147.97 87.5088C147.432 87.8109 146.842 87.9921 146.219 88.0177C141.042 88.2597 140.761 79.6237 146.116 79.8736C146.731 79.8996 147.32 80.0807 147.867 80.3825C149.226 81.1591 150.106 82.6518 150.354 84.196ZM124.745 39.5933C123.438 39.2481 122.003 39.3602 120.842 40.0588C120.312 40.3781 119.859 40.8009 119.526 41.3272C116.775 45.6664 123.925 50.3942 126.412 45.5198C126.693 44.9678 126.838 44.3638 126.847 43.7339C126.872 42.1209 125.992 40.5766 124.745 39.5933ZM150.798 70.0817C149.96 71.7209 148.457 72.9979 146.544 73.4809C144.63 73.9642 142.708 73.5499 141.205 72.5061C142.042 70.8668 143.546 69.5898 145.459 69.1068C147.372 68.6239 149.294 69.0378 150.798 70.0817ZM149.363 70.4528C148.602 71.4533 147.535 72.1697 146.296 72.4801C145.057 72.7908 143.777 72.6698 142.648 72.1434C143.409 71.1426 144.486 70.4265 145.716 70.1162C146.945 69.7973 148.227 69.9265 149.363 70.4528ZM137.259 46.3999C135.431 46.3138 133.586 46.9953 132.219 48.4189C130.853 49.8508 130.245 51.7406 130.391 53.5778C132.211 53.6642 134.064 52.9827 135.431 51.5591C136.798 50.1269 137.404 48.2378 137.259 46.3999ZM136.234 47.4783C134.995 47.6424 133.842 48.2204 132.962 49.1436C132.083 50.0664 131.544 51.2484 131.425 52.4994C132.664 52.3353 133.817 51.7577 134.697 50.8345C135.576 49.9113 136.114 48.7296 136.234 47.4783ZM57.4271 113.969C57.4779 112.787 57.6237 111.346 57.9909 110C59.2976 110.199 60.5788 110.138 61.7064 109.629C63.056 109.025 64.4909 107.153 63.3119 105.868C62.7911 104.203 60.4675 104.513 59.2806 105.393C58.2813 106.126 57.5892 107.222 57.1023 108.456C55.7696 108.102 54.4545 107.515 53.4206 106.963C54.8295 101.994 59.3653 98.1983 64.653 99.3802C66.4812 99.7856 68.3431 100.726 69.9063 102.02C70.2312 104.039 70.1114 106.135 69.5476 107.938C67.9161 113.149 62.3985 115.219 57.4271 113.969ZM58.4265 108.714C58.8106 107.791 59.3405 106.998 60.058 106.471C60.3829 106.23 61.5267 105.764 61.9454 106.1L62.125 106.558L62.4323 106.946C62.5267 107.481 61.5443 108.249 61.1771 108.413C60.3568 108.775 59.4089 108.835 58.4265 108.714ZM49.8594 83.4625C50.278 82.3585 51.0209 81.3833 52.0372 80.8053C52.5756 80.4947 53.1648 80.322 53.7885 80.2875C58.6661 80.0633 59.4773 87.9917 54.0873 87.733C53.472 87.707 52.8829 87.5262 52.336 87.224C50.9864 86.4649 50.1153 84.9897 49.8594 83.4625ZM75.0573 128.661C76.4154 129.066 77.9441 128.988 79.1661 128.255C79.6954 127.936 80.1478 127.505 80.4812 126.978C83.2832 122.561 75.5267 117.635 73.0417 122.475C72.7598 123.027 72.6146 123.631 72.6055 124.261C72.5801 126.029 73.6309 127.703 75.0573 128.661ZM49.2097 98.2239C50.0469 96.5846 51.5502 95.308 53.4636 94.8247C55.3763 94.3417 57.2982 94.7556 58.8021 95.7998C57.9649 97.4388 56.4616 98.7157 54.5482 99.1991C52.6348 99.6817 50.7129 99.2763 49.2097 98.2239ZM50.6446 97.8616C51.405 96.8608 52.4727 96.1447 53.7116 95.834C54.9415 95.5233 56.2227 95.6443 57.3588 96.1707C56.5984 97.1715 55.5306 97.8876 54.2924 98.1979C53.0625 98.5086 51.7806 98.3876 50.6446 97.8616ZM62.7487 121.914C64.5678 122 66.4213 121.319 67.7885 119.895C69.155 118.463 69.7702 116.574 69.625 114.736C67.7976 114.65 65.9525 115.331 64.5853 116.755C63.2097 118.188 62.6029 120.077 62.7487 121.914ZM63.7735 120.836C65.0124 120.672 66.1563 120.094 67.045 119.171C67.9252 118.248 68.4629 117.066 68.5827 115.815C67.3438 115.979 66.1993 116.556 65.3112 117.48C64.4317 118.394 63.8926 119.585 63.7735 120.836ZM53.7201 61.0752C54.7533 60.5317 56.0691 59.9363 57.4017 59.5825C57.8803 60.8164 58.5801 61.9119 59.5795 62.6454C60.7754 63.5252 63.099 63.8359 63.6114 62.171C64.7819 60.8855 63.3464 59.0134 61.9968 58.4006C60.8692 57.9002 59.5795 57.84 58.2813 58.0297C57.9135 56.6837 57.7683 55.2345 57.7175 54.0614C62.6804 52.8104 68.2071 54.8722 69.8386 60.0918C70.4017 61.8948 70.53 63.9911 70.1973 66.0101C68.625 67.3042 66.7715 68.2445 64.9441 68.6498C59.6648 69.8403 55.129 66.0443 53.7201 61.0752ZM58.7253 59.3238C59.7077 59.2028 60.6556 59.2636 61.4668 59.6256C61.8347 59.7897 62.8171 60.5573 62.7227 61.0926L62.4239 61.4809L62.2442 61.9382C61.8347 62.2834 60.6895 61.8087 60.3653 61.567C59.6478 61.0403 59.1185 60.2381 58.7253 59.3238ZM74.6648 39.6275C76.168 38.9459 78.03 38.9203 79.4564 39.7741C79.9857 40.0933 80.4382 40.525 80.7715 41.0511C83.6843 45.6322 75.4844 50.3081 73.0326 45.5201C72.7507 44.9681 72.6055 44.3641 72.597 43.7342C72.5801 42.1383 73.4428 40.6112 74.6648 39.6275ZM63.1075 46.012C64.9265 45.9255 66.78 46.6074 68.1472 48.0307C69.5137 49.4628 70.1205 51.3437 69.9753 53.1898C68.1556 53.2763 66.3021 52.5944 64.9349 51.1626C63.5684 49.7386 62.9623 47.8495 63.1075 46.012ZM64.1413 47.0904C65.3796 47.2544 66.5332 47.8324 67.4128 48.7553C68.2924 49.6785 68.8308 50.8604 68.9499 52.12C67.711 51.9559 66.558 51.3782 65.6784 50.455C64.7904 49.523 64.2605 48.3413 64.1413 47.0904ZM49.5684 69.6937C50.4056 71.333 51.9089 72.6096 53.8217 73.0929C55.7351 73.5759 57.6569 73.162 59.1609 72.1181C58.3236 70.4788 56.8204 69.2019 54.9069 68.7274C52.9935 68.2356 51.0717 68.6498 49.5684 69.6937ZM51.0033 70.056C51.7637 71.0568 52.8314 71.7729 54.0704 72.0832C55.3086 72.3936 56.5899 72.273 57.7175 71.7466C56.9571 70.7461 55.8809 70.0297 54.6511 69.7193C53.4213 69.4087 52.1394 69.5382 51.0033 70.056ZM146.475 106.541C145.442 107.093 144.126 107.679 142.794 108.033C142.315 106.799 141.615 105.704 140.615 104.97C139.428 104.091 137.096 103.771 136.584 105.445C135.413 106.73 136.849 108.611 138.199 109.215C139.326 109.724 140.607 109.784 141.914 109.586C142.282 110.932 142.426 112.381 142.478 113.554C137.515 114.805 131.988 112.744 130.357 107.515C129.793 105.712 129.673 103.616 129.998 101.597C131.57 100.303 133.423 99.3625 135.251 98.9571C140.539 97.7755 145.066 101.58 146.475 106.541ZM141.47 108.292C140.488 108.413 139.539 108.352 138.728 107.99C138.361 107.826 137.378 107.058 137.473 106.523L137.772 106.143L137.951 105.686C138.361 105.341 139.505 105.816 139.829 106.057C140.556 106.575 141.086 107.377 141.47 108.292ZM125.001 128.203C123.609 128.669 122.003 128.6 120.739 127.841C120.209 127.522 119.757 127.099 119.424 126.573C116.579 122.104 123.994 117.756 126.411 122.484C126.693 123.036 126.838 123.64 126.846 124.27C126.872 125.771 126.112 127.211 125.001 128.203ZM137.096 121.604C135.268 121.69 133.423 121.008 132.057 119.585C130.69 118.161 130.083 116.263 130.229 114.426C132.048 114.34 133.902 115.021 135.268 116.453C136.635 117.877 137.242 119.766 137.096 121.604ZM136.063 120.525C134.824 120.361 133.671 119.783 132.792 118.86C131.903 117.937 131.374 116.755 131.254 115.504C132.493 115.668 133.646 116.246 134.525 117.169C135.414 118.092 135.943 119.274 136.063 120.525ZM150.635 97.9221C149.798 96.2828 148.295 95.0058 146.382 94.5314C144.468 94.0484 142.546 94.4624 141.043 95.5062C141.88 97.1455 143.392 98.4225 145.297 98.9058C147.21 99.3799 149.132 98.9659 150.635 97.9221ZM149.191 97.5594C148.432 96.5587 147.355 95.8426 146.125 95.5322C144.895 95.2215 143.614 95.3425 142.478 95.8685C143.238 96.8693 144.314 97.5854 145.544 97.8958C146.783 98.2065 148.064 98.0769 149.191 97.5594ZM113.205 135.451C114.187 133.898 114.529 131.94 113.99 130.033C113.443 128.118 112.137 126.642 110.48 125.857C109.497 127.41 109.156 129.369 109.694 131.275C110.241 133.182 111.557 134.657 113.205 135.451ZM112.795 134.018C113.273 132.854 113.35 131.56 113 130.317C112.65 129.083 111.907 128.023 110.89 127.289C110.412 128.454 110.335 129.748 110.685 130.981C111.036 132.224 111.779 133.285 112.795 134.018ZM113.205 32.5535C114.187 34.1063 114.529 36.0563 113.99 37.9714C113.443 39.8865 112.137 41.3618 110.48 42.1554C109.497 40.6026 109.156 38.6441 109.694 36.7375C110.241 34.8139 111.557 33.3469 113.205 32.5535ZM112.795 33.9853C113.273 35.1502 113.35 36.4443 113 37.6782C112.65 38.9117 111.907 39.9727 110.89 40.7062C110.412 39.5417 110.335 38.2476 110.685 37.0051C111.036 35.7801 111.779 34.7188 112.795 33.9853ZM86.1276 135.451C85.1452 133.898 84.8034 131.94 85.3418 130.033C85.8796 128.118 87.1954 126.642 88.8438 125.857C89.8262 127.41 90.168 129.369 89.6296 131.275C89.0912 133.182 87.7761 134.657 86.1276 135.451ZM86.5372 134.018C86.0586 132.854 85.9818 131.56 86.3321 130.317C86.683 129.083 87.4258 128.023 88.4421 127.289C88.9206 128.454 88.9974 129.748 88.6472 130.981C88.2976 132.224 87.5541 133.285 86.5372 134.018ZM86.1276 32.5535C85.1452 34.1063 84.8034 36.0563 85.3418 37.9714C85.8796 39.8865 87.1954 41.3618 88.8438 42.1554C89.8262 40.6026 90.168 38.6441 89.6296 36.7375C89.0912 34.8139 87.7761 33.3469 86.1276 32.5535ZM86.5372 33.9853C86.0586 35.1502 85.9818 36.4443 86.3321 37.6782C86.683 38.9117 87.4258 39.9727 88.4421 40.7062C88.9206 39.5417 88.9974 38.2476 88.6472 37.0051C88.2976 35.7801 87.5541 34.7188 86.5372 33.9853ZM95.7201 136.132C96.711 135.502 97.8724 134.648 98.8373 133.656C98.0176 132.621 97.4284 131.456 97.3002 130.222C97.1465 128.738 98.0346 126.547 99.726 126.927C101.417 126.547 102.305 128.738 102.152 130.222C102.023 131.456 101.425 132.612 100.614 133.656C101.588 134.648 102.75 135.502 103.732 136.132C107.285 132.413 108.276 126.547 104.62 122.509C103.356 121.112 101.622 119.964 99.726 119.231C97.8295 119.956 96.0958 121.112 94.8314 122.509C91.1758 126.547 92.1661 132.414 95.7201 136.132ZM99.726 132.629C100.324 131.836 100.742 130.964 100.837 130.076C100.879 129.67 100.708 128.436 100.213 128.247L99.726 128.315L99.2474 128.247C98.7429 128.428 98.5808 129.67 98.6237 130.076C98.7097 130.964 99.1368 131.836 99.726 132.629ZM99.726 35.3744C99.1277 36.1766 98.709 37.0308 98.6153 37.928C98.573 38.3337 98.7435 39.5673 99.239 39.757L99.7175 39.6883L100.204 39.757C100.7 39.5673 100.87 38.3337 100.828 37.928C100.742 37.0308 100.324 36.1766 99.726 35.3744Z" fill="#CCAF6B"/>
<path fill-rule="evenodd" clip-rule="evenodd" d="M84.915 54.6736C85.2398 52.862 84.8127 50.9209 83.5907 49.3681C82.3694 47.8064 80.5927 46.9523 78.773 46.8576C78.4573 48.6691 78.8759 50.6106 80.0972 52.1634C81.3193 53.7244 83.0959 54.5786 84.915 54.6736ZM82.7887 50.0063C83.5829 51.0156 84.0015 52.2406 83.9931 53.5002C82.7795 53.2154 81.6864 52.5253 80.8922 51.516C80.0979 50.5152 79.6884 49.2813 79.6884 48.0218C80.9091 48.3068 81.9937 48.9969 82.7887 50.0063Z" fill="#CCAF6B"/>
<path fill-rule="evenodd" clip-rule="evenodd" d="M121.27 120.896C121.586 119.085 121.167 117.143 119.946 115.59C118.724 114.029 116.947 113.175 115.127 113.08C114.802 114.892 115.23 116.833 116.451 118.386C117.673 119.938 119.45 120.801 121.27 120.896ZM119.142 116.228C119.928 117.229 120.347 118.463 120.347 119.723C119.134 119.438 118.04 118.748 117.255 117.738C116.46 116.729 116.041 115.504 116.05 114.244C117.263 114.529 118.348 115.219 119.142 116.228Z" fill="#CCAF6B"/>
<path fill-rule="evenodd" clip-rule="evenodd" d="M142.179 83.9026C141.197 82.3497 139.582 81.2194 137.635 80.9176C135.687 80.6155 133.808 81.202 132.408 82.3843C133.389 83.9371 135.004 85.076 136.951 85.3778C138.899 85.671 140.778 85.0845 142.179 83.9026ZM137.481 81.9355C138.736 82.1341 139.873 82.7466 140.719 83.6783C139.634 84.3079 138.369 84.5496 137.114 84.3513C135.859 84.1528 134.722 83.5402 133.876 82.6085C134.953 81.9786 136.217 81.7458 137.481 81.9355Z" fill="#CCAF6B"/>
<path fill-rule="evenodd" clip-rule="evenodd" d="M67.6094 84.6619C66.5586 83.1521 64.8932 82.0908 62.9368 81.8837C60.9805 81.6684 59.1276 82.341 57.7773 83.5835C58.8281 85.0929 60.4935 86.1456 62.4499 86.3699C64.4063 86.577 66.2598 85.9043 67.6094 84.6619ZM62.8255 82.9105C64.0898 83.0482 65.2513 83.6091 66.14 84.5063C65.0807 85.1794 63.8333 85.4815 62.569 85.3349C61.3047 85.1968 60.1432 84.6273 59.2552 83.7475C60.306 83.0657 61.5618 82.7724 62.8255 82.9105Z" fill="#CCAF6B"/>
<path fill-rule="evenodd" clip-rule="evenodd" d="M84.1805 112.89C82.37 113.14 80.6694 114.141 79.5763 115.789C78.4832 117.436 78.2183 119.412 78.6883 121.189C80.4989 120.948 82.1987 119.947 83.2918 118.291C84.3771 116.634 84.6421 114.667 84.1805 112.89ZM80.4312 116.358C81.131 115.289 82.1649 114.512 83.3524 114.124C83.4546 115.383 83.1382 116.634 82.4299 117.704C81.7209 118.774 80.6955 119.55 79.5086 119.938C79.4058 118.687 79.7222 117.428 80.4312 116.358Z" fill="#CCAF6B"/>
<path fill-rule="evenodd" clip-rule="evenodd" d="M121.192 46.9952C119.382 47.2368 117.681 48.2376 116.588 49.894C115.495 51.55 115.23 53.5089 115.7 55.2945C117.502 55.0528 119.21 54.052 120.304 52.396C121.398 50.7478 121.662 48.7811 121.192 46.9952ZM117.443 50.472C118.152 49.4025 119.185 48.6259 120.373 48.2462C120.475 49.5057 120.159 50.7567 119.451 51.8265C118.742 52.8964 117.716 53.6726 116.529 54.0612C116.417 52.8013 116.734 51.5418 117.443 50.472Z" fill="#CCAF6B"/>
<path fill-rule="evenodd" clip-rule="evenodd" d="M100 54.3285C83.771 54.3285 70.6245 67.6147 70.6245 83.9976C70.6245 100.389 83.7788 113.667 100 113.667C116.221 113.667 129.376 100.381 129.376 83.9976C129.384 67.6147 116.229 54.3285 100 54.3285ZM100 56.0112C115.307 56.0112 127.718 68.5464 127.718 84.0065C127.718 99.4662 115.307 112.002 100 112.002C84.6935 112.002 72.2821 99.4662 72.2821 84.0065C72.2905 68.5379 84.6929 56.0112 100 56.0112Z" fill="#CCAF6B"/>
<path fill-rule="evenodd" clip-rule="evenodd" d="M99.9998 50.6188C81.7459 50.6188 66.9517 65.5613 66.9517 83.9974C66.9517 102.434 81.7459 117.376 99.9998 117.376C118.254 117.376 133.049 102.434 133.049 83.9974C133.048 65.5699 118.254 50.6188 99.9998 50.6188ZM99.9998 51.6972C117.665 51.6972 131.989 66.1564 131.989 83.9974C131.989 101.838 117.665 116.298 99.9998 116.298C82.3358 116.298 68.0194 101.838 68.0194 83.9974C68.0194 66.1653 82.3358 51.6972 99.9998 51.6972Z" fill="#CCAF6B"/>
<path fill-rule="evenodd" clip-rule="evenodd" d="M99.7264 42.6213C100.913 42.6213 101.87 43.5876 101.87 44.7869C101.87 45.986 100.913 46.9523 99.7264 46.9523C98.5474 46.9523 97.5825 45.986 97.5825 44.7869C97.5825 43.5964 98.5474 42.6213 99.7264 42.6213Z" fill="#CCAF6B"/>
<path fill-rule="evenodd" clip-rule="evenodd" d="M76.9451 41.1459C78.0558 41.1459 78.9523 42.0517 78.9523 43.1732C78.9523 44.2943 78.0558 45.2004 76.9451 45.2004C75.8351 45.2004 74.938 44.2943 74.938 43.1732C74.938 42.0517 75.8351 41.1459 76.9451 41.1459Z" fill="#CCAF6B"/>
<path fill-rule="evenodd" clip-rule="evenodd" d="M53.9593 82.0649C55.07 82.0649 55.9665 82.971 55.9665 84.0924C55.9665 85.2139 55.07 86.1197 53.9593 86.1197C52.8486 86.1197 51.9521 85.2136 51.9521 84.0924C51.9521 82.971 52.8486 82.0649 53.9593 82.0649Z" fill="#CCAF6B"/>
<path fill-rule="evenodd" clip-rule="evenodd" d="M122.91 41.5516C124.02 41.5516 124.917 42.4574 124.917 43.5789C124.917 44.7003 124.02 45.6061 122.91 45.6061C121.799 45.6061 120.902 44.7 120.902 43.5789C120.902 42.4571 121.799 41.5516 122.91 41.5516Z" fill="#CCAF6B"/>
<path fill-rule="evenodd" clip-rule="evenodd" d="M146.135 81.9097C147.245 81.9097 148.142 82.8155 148.142 83.9369C148.142 85.0584 147.245 85.9642 146.135 85.9642C145.024 85.9642 144.127 85.0584 144.127 83.9369C144.127 82.8155 145.024 81.9097 146.135 81.9097Z" fill="#CCAF6B"/>
<path fill-rule="evenodd" clip-rule="evenodd" d="M122.824 122.527C123.934 122.527 124.831 123.433 124.831 124.554C124.831 125.676 123.934 126.581 122.824 126.581C121.714 126.581 120.816 125.675 120.816 124.554C120.825 123.433 121.722 122.527 122.824 122.527Z" fill="#CCAF6B"/>
<path fill-rule="evenodd" clip-rule="evenodd" d="M76.723 122.691C77.8337 122.691 78.7301 123.597 78.7301 124.718C78.7301 125.839 77.8337 126.745 76.723 126.745C75.613 126.745 74.7158 125.839 74.7158 124.718C74.7158 123.597 75.613 122.691 76.723 122.691Z" fill="#CCAF6B"/>
<path fill-rule="evenodd" clip-rule="evenodd" d="M133.877 61.955C135.065 61.955 136.021 62.9212 136.021 64.1206C136.021 65.3197 135.065 66.2859 133.877 66.2859C132.69 66.2859 131.733 65.3197 131.733 64.1206C131.733 62.9212 132.69 61.955 133.877 61.955Z" fill="#CCAF6B"/>
<path fill-rule="evenodd" clip-rule="evenodd" d="M133.655 101.623C134.834 101.623 135.799 102.589 135.799 103.788C135.799 104.979 134.841 105.954 133.655 105.954C132.468 105.954 131.511 104.988 131.511 103.788C131.51 102.589 132.476 101.623 133.655 101.623Z" fill="#CCAF6B"/>
<path fill-rule="evenodd" clip-rule="evenodd" d="M99.5897 121.379C100.777 121.379 101.734 122.346 101.734 123.545C101.734 124.735 100.777 125.71 99.5897 125.71C98.4028 125.71 97.4458 124.744 97.4458 123.545C97.4458 122.346 98.4106 121.379 99.5897 121.379Z" fill="#CCAF6B"/>
<path fill-rule="evenodd" clip-rule="evenodd" d="M66.3621 101.726C67.5412 101.726 68.506 102.693 68.506 103.892C68.506 105.091 67.5496 106.057 66.3621 106.057C65.1753 106.057 64.2183 105.091 64.2183 103.892C64.2267 102.693 65.1838 101.726 66.3621 101.726Z" fill="#CCAF6B"/>
<path fill-rule="evenodd" clip-rule="evenodd" d="M66.849 61.653C68.0365 61.653 68.9928 62.6189 68.9928 63.8183C68.9928 65.0177 68.0365 65.984 66.849 65.984C65.6621 65.984 64.7051 65.0177 64.7051 63.8183C64.7051 62.6189 65.6621 61.653 66.849 61.653Z" fill="#CCAF6B"/>
<path fill-rule="evenodd" clip-rule="evenodd" d="M97.2752 53.7158C96.0194 53.828 95.5838 52.042 94.2856 52.2147C93.0467 52.5079 93.1834 54.3455 91.9536 54.6907C90.7401 55.027 89.9972 53.3447 88.7505 53.75C87.5799 54.259 88.0415 56.0534 86.897 56.6058C85.7609 57.1578 84.7362 55.6395 83.5741 56.2691C82.5148 56.9766 83.2837 58.659 82.2498 59.4181C81.2251 60.1687 79.9523 58.8572 78.9276 59.6854C78.005 60.5741 79.0643 62.0924 78.1847 63.0242C77.3136 63.9474 75.8188 62.8861 74.9562 63.8783C74.2127 64.9222 75.5194 66.2162 74.8104 67.2946C74.1183 68.3556 72.4614 67.5879 71.7863 68.7182C71.2394 69.8831 72.7518 70.9181 72.2479 72.1089C71.7524 73.282 69.9842 72.8161 69.5233 74.0585C69.1906 75.301 70.8644 76.0512 70.5825 77.3026C70.3006 78.545 68.4816 78.4066 68.2505 79.7181C68.1398 81.0036 69.925 81.435 69.8657 82.7205C69.8052 83.9886 67.9946 84.1871 67.9946 85.5068C68.1144 86.7924 69.9425 86.8959 70.1131 88.1726C70.2843 89.4321 68.533 89.9499 68.7635 91.2525C69.1047 92.495 70.9243 92.2708 71.3175 93.4958C71.7108 94.7119 70.0786 95.5316 70.5317 96.774C71.0871 97.9303 72.8384 97.3868 73.4445 98.5168C74.0428 99.6383 72.5819 100.743 73.257 101.882C74.0083 102.917 75.6313 102.063 76.4256 103.072C77.2114 104.073 75.9731 105.419 76.8351 106.419C77.7576 107.308 79.2101 106.169 80.1665 107.015C81.1151 107.851 80.1326 109.405 81.158 110.232C82.2257 110.94 83.4471 109.559 84.5402 110.224C85.6255 110.879 84.9334 112.587 86.0864 113.209C87.257 113.71 88.2225 112.139 89.4185 112.588C90.5968 113.037 90.2212 114.84 91.4679 115.245C92.7069 115.53 93.3813 113.805 94.6287 114.029C95.867 114.253 95.8156 116.099 97.1144 116.272C98.3872 116.332 98.7375 114.512 100.019 114.512C101.283 114.512 101.548 116.332 102.863 116.272C104.127 116.099 104.153 114.245 105.409 114.012C106.647 113.788 107.236 115.521 108.518 115.237C109.731 114.831 109.424 113.011 110.619 112.554C111.806 112.105 112.686 113.71 113.899 113.192C115.017 112.58 114.403 110.837 115.496 110.173C116.581 109.517 117.734 110.94 118.836 110.216C119.827 109.413 118.913 107.809 119.869 106.963C120.818 106.126 122.209 107.317 123.158 106.402C123.995 105.427 122.808 104.021 123.602 103.012C124.388 102.011 125.968 102.934 126.737 101.864C127.386 100.76 125.968 99.5867 126.575 98.4481C127.173 97.3263 128.89 97.9474 129.462 96.7569C129.906 95.549 128.309 94.6521 128.702 93.4271C129.095 92.2106 130.889 92.5127 131.239 91.2358C131.461 89.9674 129.727 89.3723 129.898 88.0953C130.069 86.8358 131.888 86.8012 132.008 85.4812C132.008 84.1957 130.189 83.9195 130.137 82.6343C130.077 81.3659 131.872 81.0036 131.752 79.6836C131.521 78.4155 129.693 78.4756 129.403 77.225C129.121 75.9825 130.821 75.3099 130.471 74.0329C130.018 72.825 128.224 73.2133 127.728 72.0313C127.234 70.8582 128.779 69.892 128.215 68.6926C127.558 67.5886 125.866 68.2958 125.167 67.2174C124.474 66.1564 125.824 64.9228 125.055 63.8445C124.209 62.8782 122.672 63.8786 121.792 62.9469C120.921 62.024 122.031 60.5659 121.083 59.6516C120.084 58.8494 118.743 60.1174 117.709 59.3583C116.684 58.6077 117.529 56.977 116.436 56.2438C115.308 55.6398 114.215 57.1154 113.062 56.563C111.926 56.011 112.464 54.2508 111.26 53.7244C110.047 53.3279 109.227 54.9928 107.997 54.6476C106.775 54.3113 106.997 52.482 105.715 52.1887C104.452 52.0164 103.939 53.8023 102.667 53.6813C101.411 53.5692 101.3 51.7314 99.9927 51.6712C98.7355 51.7577 98.5389 53.6037 97.2752 53.7158ZM97.3429 54.4579C98.9315 54.3113 99.2993 52.4734 100.026 52.4389C100.743 52.4734 101.033 54.3024 102.614 54.449C104.185 54.5871 104.894 52.8531 105.612 52.9478C106.312 53.1119 106.27 54.9668 107.807 55.3893C109.345 55.8207 110.327 54.2333 111.019 54.4576C111.677 54.742 111.309 56.5624 112.745 57.2614C114.18 57.9603 115.427 56.5713 116.067 56.925C116.665 57.3304 115.982 59.0473 117.271 59.9961C118.561 60.945 120.047 59.815 120.603 60.2638C121.107 60.7556 120.141 62.3341 121.243 63.4989C122.346 64.6638 123.994 63.8096 124.472 64.3616C124.9 64.957 123.652 66.3116 124.532 67.6658C125.412 69.0118 127.189 68.468 127.564 69.098C127.872 69.745 126.42 70.8924 127.043 72.3588C127.667 73.834 129.512 73.6272 129.768 74.3087C129.956 75.0163 128.325 75.853 128.675 77.4232C129.034 78.9935 130.887 79.1141 131.015 79.8388C131.075 80.5634 129.324 81.0983 129.392 82.703C129.469 84.3078 131.263 84.7651 131.263 85.4983C131.194 86.2229 129.375 86.4301 129.153 88.0259C128.948 89.5787 130.631 90.3984 130.502 91.1145C130.306 91.8134 128.478 91.6924 127.983 93.2196C127.487 94.7553 129.016 95.8163 128.769 96.5067C128.453 97.1623 126.676 96.705 125.916 98.1286C125.155 99.5433 126.471 100.872 126.103 101.501C125.676 102.088 124.011 101.32 123.012 102.58C122.021 103.839 123.071 105.375 122.601 105.936C122.081 106.436 120.569 105.375 119.373 106.436C118.168 107.498 118.946 109.197 118.374 109.663C117.767 110.06 116.477 108.749 115.102 109.577C113.736 110.396 114.188 112.217 113.547 112.57C112.881 112.855 111.839 111.328 110.344 111.897C108.849 112.467 108.978 114.33 108.294 114.563C107.603 114.718 106.799 113.036 105.262 113.321C103.69 113.605 103.494 115.469 102.768 115.572C102.051 115.598 101.607 113.804 100.009 113.804C98.4113 113.804 97.882 115.598 97.1561 115.572C96.4386 115.469 96.3188 113.622 94.7557 113.338C93.201 113.053 92.3384 114.718 91.6379 114.554C90.9549 114.33 91.1593 112.484 89.6645 111.923C88.1698 111.353 87.0506 112.846 86.3853 112.561C85.7531 112.208 86.2824 110.439 84.9074 109.611C83.5409 108.783 82.1743 110.051 81.5675 109.645C81.0044 109.188 81.841 107.54 80.6366 106.479C79.4321 105.418 77.869 106.419 77.3397 105.909C76.8696 105.357 77.9803 103.891 76.9894 102.631C75.9979 101.372 74.2726 102.07 73.8462 101.475C73.4784 100.845 74.8371 99.6028 74.0767 98.1795C73.3162 96.7559 71.505 97.1442 71.1808 96.4801C70.9334 95.7985 72.4881 94.8152 71.992 93.2794C71.4966 91.7523 69.6431 91.7953 69.4465 91.0878C69.3188 90.3892 71.0187 89.6386 70.813 88.0858C70.5994 86.4899 68.7635 86.1966 68.7036 85.4631C68.7114 84.7385 70.5057 84.3673 70.5741 82.7629C70.6424 81.1496 68.8911 80.5371 68.951 79.8039C69.0877 79.0878 70.9152 79.0533 71.2739 77.4749C71.6242 75.9046 70.0096 74.9814 70.2062 74.2739C70.4627 73.5923 72.2733 73.8856 72.897 72.4018C73.5207 70.9181 72.0942 69.7272 72.41 69.0631C72.7863 68.4421 74.5109 69.0546 75.3911 67.7086C76.2713 66.3625 75.0754 64.9307 75.5024 64.3353C75.981 63.7833 77.5695 64.7062 78.6802 63.5416C79.7817 62.3768 78.8677 60.7464 79.3892 60.2374C79.9523 59.7887 81.3625 60.9792 82.6522 60.0303C83.9419 59.0815 83.3267 57.3127 83.9334 56.9073C84.5741 56.5621 85.744 57.9945 87.1795 57.287C88.6151 56.5884 88.3241 54.742 88.9901 54.4487C89.6821 54.2241 90.5786 55.8378 92.1164 55.4061C93.6541 54.9747 93.6886 53.1027 94.4061 52.9386C95.1392 52.8535 95.7629 54.596 97.3429 54.4579Z" fill="#CCAF6B"/>
<path d="M179.639 174.001C178.619 174.001 177.928 173.268 177.928 172.352C177.928 171.597 178.358 171.013 179.084 171.013C179.73 171.013 180.194 171.482 180.194 172.123C180.194 172.776 179.741 173.245 179.14 173.245C178.483 173.245 178.098 172.764 178.018 172.295C178.018 173.257 178.698 173.909 179.639 173.909C180.897 173.909 181.668 172.879 182.348 171.082L182.982 169.41C183.039 169.262 183.107 169.078 183.107 168.93C183.107 168.701 182.971 168.529 182.54 168.529H182.382L178.755 158.067H177.406V157.975H182.472V158.067H180.738L183.855 167.11L185.94 161.581C186.178 160.951 186.303 160.322 186.303 159.784C186.303 158.788 185.895 158.067 185.011 158.067H184.841V157.975H188.819V158.067H188.74C187.482 158.067 186.802 159.532 185.906 161.913L182.461 171.036C181.747 172.925 180.965 174.001 179.639 174.001Z" fill="#CCAF6B"/>
<path d="M175.601 167.533L175.669 167.59C175.261 168.22 174.558 168.827 173.448 168.827C171.804 168.827 171.056 167.728 171.056 165.461V158.067H169.379V157.975H171.056V156.029C171.714 155.846 172.575 155.125 172.938 154.518V157.975H175.612V158.067H172.938V166.869C172.938 168.094 173.402 168.529 174.071 168.529C174.785 168.529 175.329 167.968 175.601 167.533Z" fill="#CCAF6B"/>
<path d="M166.199 154.358C166.199 154.999 165.701 155.468 165.1 155.468C164.488 155.468 164.001 154.999 164.001 154.358C164.001 153.717 164.488 153.248 165.1 153.248C165.701 153.248 166.199 153.717 166.199 154.358ZM166.052 157.689V168.437H167.797V168.529H162.414V168.437H164.159V158.067H162.414V157.975C163.91 157.975 164.941 157.907 166.052 157.689Z" fill="#CCAF6B"/>
<path d="M158.985 161.478V168.437H160.73V168.529H155.415V168.437H157.092V160.482C157.092 158.719 156.435 157.987 155.415 157.987C153.33 157.987 152.457 161.089 152.457 162.531V168.437H154.123V168.529H148.819V168.437H150.564V158.067H148.819V157.975C150.315 157.975 151.358 157.907 152.457 157.689V161.592C152.752 160.036 153.602 157.689 156.038 157.689C157.942 157.689 158.985 159.074 158.985 161.478Z" fill="#CCAF6B"/>
<path d="M147.007 159.12C147.007 159.875 146.474 160.345 145.885 160.345C145.296 160.345 144.763 159.875 144.763 159.234C144.763 158.582 145.284 158.124 145.851 158.124C146.282 158.124 146.678 158.364 146.871 158.742C146.712 158.238 146.27 157.781 145.466 157.781C143.222 157.781 142.326 161.352 142.326 164.168V168.437H144.185V168.529H138.654V168.437H140.4V158.067H138.654V157.975C140.173 157.975 141.216 157.907 142.326 157.689V162.565C142.632 159.978 143.641 157.689 145.466 157.689C146.429 157.689 147.007 158.319 147.007 159.12Z" fill="#CCAF6B"/>
<path d="M136.225 166.469L136.293 166.514C135.591 167.819 134.095 168.827 132.417 168.827C129.833 168.827 127.261 166.595 127.261 163.275C127.261 160.047 129.697 157.689 132.383 157.689C135.239 157.689 136.543 160.242 136.407 162.623H129.335C129.267 166.182 130.275 168.598 132.837 168.598C134.276 168.598 135.568 167.648 136.225 166.469ZM129.335 162.531H134.31C134.321 162.371 134.321 162.199 134.321 162.039C134.321 160.013 133.732 157.781 132.055 157.781C130.309 157.781 129.471 160.047 129.335 162.531Z" fill="#CCAF6B"/>
<path d="M125.221 167.533L125.289 167.59C124.881 168.22 124.178 168.827 123.068 168.827C121.424 168.827 120.676 167.728 120.676 165.461V158.067H118.999V157.975H120.676V156.029C121.334 155.846 122.195 155.125 122.558 154.518V157.975H125.232V158.067H122.558V166.869C122.558 168.094 123.022 168.529 123.691 168.529C124.405 168.529 124.949 167.968 125.221 167.533Z" fill="#CCAF6B"/>
<path d="M116.396 164.042L116.452 162.909H116.543L116.271 168.529H104.473V168.437H106.49V152.595H104.473V152.504H116.203L116.384 157.849H116.294L116.237 156.831C116.112 154.644 115.308 152.595 111.636 152.595H108.712V160.459H109.675C110.242 160.459 110.752 160.425 111.069 160.345C112.157 160.081 112.758 158.765 112.803 157.369H112.894V163.641H112.803C112.735 161.867 112.168 160.906 111.126 160.654C110.752 160.562 110.253 160.551 109.675 160.551H108.712V168.437H111.613C115.149 168.437 116.271 166.48 116.396 164.042Z" fill="#CCAF6B"/>
<path d="M94.5421 152.332C95.1201 152.332 95.4147 152.698 95.5621 153.03C95.3921 152.378 94.8027 152.023 94.1227 152.023C92.7854 152.023 91.8787 153.156 91.8787 155.194C91.8787 156.075 92.0261 157.06 92.2981 157.975H94.7007V158.067H92.3094V168.437H94.3267V168.529H88.6714V168.437H90.4281V158.994C90.4281 158.673 90.4394 158.364 90.4507 158.067H88.6714V157.975H90.4621C90.7001 154.129 92.2981 151.931 94.1227 151.931C95.0181 151.931 95.6867 152.504 95.6867 153.328C95.6867 154.026 95.2107 154.553 94.5534 154.553C93.8961 154.553 93.4314 154.072 93.4314 153.442C93.4314 152.847 93.8847 152.332 94.5421 152.332Z" fill="#CCAF6B"/>
<path d="M81.4047 157.689C84.0227 157.689 86.516 160.013 86.516 163.264C86.516 166.492 84.0227 168.827 81.4047 168.827C78.7867 168.827 76.3047 166.48 76.3047 163.264C76.3047 160.024 78.7867 157.689 81.4047 157.689ZM84.442 163.149C84.442 160.505 83.7847 157.781 81.4274 157.781C79.0474 157.781 78.3787 160.505 78.3787 163.103C78.3787 166.182 79.138 168.735 81.4047 168.735C83.6827 168.735 84.442 166.171 84.442 163.149Z" fill="#CCAF6B"/>
<path d="M64.927 161.489V168.437H66.6837V168.529H61.3117V168.437H63.0457V160.39C63.0457 158.742 62.411 157.987 61.391 157.987C59.249 157.987 58.2064 161.226 58.2064 162.829V168.437H59.9517V168.529H54.5684V168.437H56.3137V152.595H54.5684V152.504C56.0644 152.504 57.107 152.435 58.2064 152.218V161.947C58.5124 160.219 59.4984 157.689 62.0144 157.689C63.8957 157.689 64.927 159.063 64.927 161.489Z" fill="#CCAF6B"/>
<path d="M47.4197 161.65L51.7264 168.437H53.0071V168.529H48.1564V168.437H49.5617L46.0824 163.046L44.6771 164.511V168.437H46.3657V168.529H41.0391V168.437H42.7844V152.595H41.0391V152.504C42.5351 152.504 43.5777 152.435 44.6771 152.218V164.385L48.0771 160.848C48.8251 160.07 49.1197 159.395 49.1197 158.902C49.1197 158.376 48.7797 158.067 48.2924 158.067H48.2017V157.975H52.5991V158.067H52.5537C51.5564 158.067 49.8904 159.074 48.0997 160.94L47.4197 161.65Z" fill="#CCAF6B"/>
<path d="M37.7002 161.478V168.437H39.4455V168.529H34.1302V168.437H35.8075V160.482C35.8075 158.719 35.1502 157.987 34.1302 157.987C32.0448 157.987 31.1722 161.089 31.1722 162.531V168.437H32.8382V168.529H27.5342V168.437H29.2795V158.067H27.5342V157.975C29.0302 157.975 30.0728 157.907 31.1722 157.689V161.592C31.4668 160.036 32.3168 157.689 34.7535 157.689C36.6575 157.689 37.7002 159.074 37.7002 161.478Z" fill="#CCAF6B"/>
<path d="M18.4186 152.206L24.3913 168.437H25.9553V168.529H20.1866V168.437H21.9546L19.8353 162.623H14.826C14.214 164.408 13.976 165.645 13.976 166.514C13.976 168.186 14.894 168.437 15.8913 168.437H16.0273V168.529H10.814V168.437H10.8366C12.2533 168.437 12.9673 167.728 14.1913 164.168L18.3393 152.206H18.4186ZM14.8486 162.531H19.8013L17.2626 155.583L14.86 162.508C14.86 162.52 14.86 162.52 14.8486 162.531Z" fill="#CCAF6B"/>
</svg>
