<svg width="1889" height="240" viewBox="0 0 1889 240" fill="none" xmlns="http://www.w3.org/2000/svg">
<mask id="mask0_16_4125" style="mask-type:alpha" maskUnits="userSpaceOnUse" x="1" y="33" width="1886" height="232">
<path opacity="0.05" d="M82.08 35.88L145.32 206.04H161.88V207H100.8V206.04H119.52L97.08 145.08H44.04C37.56 163.8 35.04 176.76 35.04 185.88C35.04 203.4 44.76 206.04 55.32 206.04H56.76V207H1.56V206.04H1.8C16.8 206.04 24.36 198.6 37.32 161.28L81.24 35.88H82.08ZM44.28 144.12H96.72L69.84 71.28L44.4 143.88C44.4 144 44.4 144 44.28 144.12ZM286.239 133.08V206.04H304.719V207H248.439V206.04H266.199V122.64C266.199 104.16 259.239 96.48 248.439 96.48C226.359 96.48 217.119 129 217.119 144.12V206.04H234.759V207H178.599V206.04H197.079V97.32H178.599V96.36C194.439 96.36 205.479 95.64 217.119 93.36V134.28C220.239 117.96 229.239 93.36 255.039 93.36C275.199 93.36 286.239 107.88 286.239 133.08ZM389.153 134.88L434.753 206.04H448.313V207H396.953V206.04H411.833L374.993 149.52L360.113 164.88V206.04H377.993V207H321.593V206.04H340.073V39.96H321.593V39C337.433 39 348.473 38.28 360.113 36V163.56L396.113 126.48C404.033 118.32 407.153 111.24 407.153 106.08C407.153 100.56 403.553 97.32 398.393 97.32H397.433V96.36H443.993V97.32H443.513C432.953 97.32 415.313 107.88 396.353 127.44L389.153 134.88ZM574.523 133.2V206.04H593.123V207H536.243V206.04H554.603V121.68C554.603 104.4 547.883 96.48 537.083 96.48C514.403 96.48 503.363 130.44 503.363 147.24V206.04H521.843V207H464.843V206.04H483.323V39.96H464.843V39C480.683 39 491.723 38.28 503.363 36V138C506.603 119.88 517.043 93.36 543.683 93.36C563.603 93.36 574.523 107.76 574.523 133.2ZM748.993 93.36C776.713 93.36 803.113 117.72 803.113 151.8C803.113 185.64 776.713 210.12 748.993 210.12C721.273 210.12 694.993 185.52 694.993 151.8C694.993 117.84 721.273 93.36 748.993 93.36ZM781.153 150.6C781.153 122.88 774.193 94.32 749.233 94.32C724.033 94.32 716.953 122.88 716.953 150.12C716.953 182.4 724.993 209.16 748.993 209.16C773.113 209.16 781.153 182.28 781.153 150.6ZM888.092 37.2C894.212 37.2 897.332 41.04 898.892 44.52C897.092 37.68 890.852 33.96 883.652 33.96C869.492 33.96 859.892 45.84 859.892 67.2C859.892 76.44 861.452 86.76 864.332 96.36H889.772V97.32H864.452V206.04H885.812V207H825.932V206.04H844.532V107.04C844.532 103.68 844.652 100.44 844.772 97.32H825.932V96.36H844.892C847.412 56.04 864.332 33 883.652 33C893.132 33 900.212 39 900.212 47.64C900.212 54.96 895.172 60.48 888.212 60.48C881.252 60.48 876.332 55.44 876.332 48.84C876.332 42.6 881.132 37.2 888.092 37.2ZM1119.49 159.96L1120.09 148.08H1121.05L1118.17 207H993.248V206.04H1014.61V39.96H993.248V39H1117.45L1119.37 95.04H1118.41L1117.81 84.36C1116.49 61.44 1107.97 39.96 1069.09 39.96H1038.13V122.4H1048.33C1054.33 122.4 1059.73 122.04 1063.09 121.2C1074.61 118.44 1080.97 104.64 1081.45 90H1082.41V155.76H1081.45C1080.73 137.16 1074.73 127.08 1063.69 124.44C1059.73 123.48 1054.45 123.36 1048.33 123.36H1038.13V206.04H1068.85C1106.29 206.04 1118.17 185.52 1119.49 159.96ZM1212.93 196.56L1213.65 197.16C1209.33 203.76 1201.89 210.12 1190.13 210.12C1172.73 210.12 1164.81 198.6 1164.81 174.84V97.32H1147.05V96.36H1164.81V75.96C1171.77 74.04 1180.89 66.48 1184.73 60.12V96.36H1213.05V97.32H1184.73V189.6C1184.73 202.44 1189.65 207 1196.73 207C1204.29 207 1210.05 201.12 1212.93 196.56ZM1329.44 185.4L1330.16 185.88C1322.72 199.56 1306.88 210.12 1289.12 210.12C1261.76 210.12 1234.52 186.72 1234.52 151.92C1234.52 118.08 1260.32 93.36 1288.76 93.36C1319 93.36 1332.8 120.12 1331.36 145.08H1256.48C1255.76 182.4 1266.44 207.72 1293.56 207.72C1308.8 207.72 1322.48 197.76 1329.44 185.4ZM1256.48 144.12H1309.16C1309.28 142.44 1309.28 140.64 1309.28 138.96C1309.28 117.72 1303.04 94.32 1285.28 94.32C1266.8 94.32 1257.92 118.08 1256.48 144.12ZM1443.6 108.36C1443.6 116.28 1437.96 121.2 1431.72 121.2C1425.48 121.2 1419.84 116.28 1419.84 109.56C1419.84 102.72 1425.36 97.92 1431.36 97.92C1435.92 97.92 1440.12 100.44 1442.16 104.4C1440.48 99.12 1435.8 94.32 1427.28 94.32C1403.52 94.32 1394.04 131.76 1394.04 161.28V206.04H1413.72V207H1355.16V206.04H1373.64V97.32H1355.16V96.36C1371.24 96.36 1382.28 95.64 1394.04 93.36V144.48C1397.28 117.36 1407.96 93.36 1427.28 93.36C1437.48 93.36 1443.6 99.96 1443.6 108.36ZM1570.43 133.08V206.04H1588.91V207H1532.63V206.04H1550.39V122.64C1550.39 104.16 1543.43 96.48 1532.63 96.48C1510.55 96.48 1501.31 129 1501.31 144.12V206.04H1518.95V207H1462.79V206.04H1481.27V97.32H1462.79V96.36C1478.63 96.36 1489.67 95.64 1501.31 93.36V134.28C1504.43 117.96 1513.43 93.36 1539.23 93.36C1559.39 93.36 1570.43 107.88 1570.43 133.08ZM1646.82 58.44C1646.82 65.16 1641.54 70.08 1635.18 70.08C1628.7 70.08 1623.54 65.16 1623.54 58.44C1623.54 51.72 1628.7 46.8 1635.18 46.8C1641.54 46.8 1646.82 51.72 1646.82 58.44ZM1645.26 93.36V206.04H1663.74V207H1606.74V206.04H1625.22V97.32H1606.74V96.36C1622.58 96.36 1633.5 95.64 1645.26 93.36ZM1746.36 196.56L1747.08 197.16C1742.76 203.76 1735.32 210.12 1723.56 210.12C1706.16 210.12 1698.24 198.6 1698.24 174.84V97.32H1680.48V96.36H1698.24V75.96C1705.2 74.04 1714.32 66.48 1718.16 60.12V96.36H1746.48V97.32H1718.16V189.6C1718.16 202.44 1723.08 207 1730.16 207C1737.72 207 1743.48 201.12 1746.36 196.56ZM1789.12 264.36C1778.32 264.36 1771 256.68 1771 247.08C1771 239.16 1775.56 233.04 1783.24 233.04C1790.08 233.04 1795 237.96 1795 244.68C1795 251.52 1790.2 256.44 1783.84 256.44C1776.88 256.44 1772.8 251.4 1771.96 246.48C1771.96 256.56 1779.16 263.4 1789.12 263.4C1802.44 263.4 1810.6 252.6 1817.8 233.76L1824.52 216.24C1825.12 214.68 1825.84 212.76 1825.84 211.2C1825.84 208.8 1824.4 207 1819.84 207H1818.16L1779.76 97.32H1765.48V96.36H1819.12V97.32H1800.76L1833.76 192.12L1855.84 134.16C1858.36 127.56 1859.68 120.96 1859.68 115.32C1859.68 104.88 1855.36 97.32 1846 97.32H1844.2V96.36H1886.32V97.32H1885.48C1872.16 97.32 1864.96 112.68 1855.48 137.64L1819 233.28C1811.44 253.08 1803.16 264.36 1789.12 264.36Z" fill="#6E3F08"/>
</mask>
<g mask="url(#mask0_16_4125)">
<rect y="-14" width="1888" height="248" fill="url(#paint0_linear_16_4125)"/>
</g>
<defs>
<linearGradient id="paint0_linear_16_4125" x1="944" y1="157.14" x2="944" y2="234" gradientUnits="userSpaceOnUse">
<stop/>
<stop offset="1" stop-opacity="0"/>
</linearGradient>
</defs>
</svg>
